<svg xmlns="http://www.w3.org/2000/svg" version="1.1" xmlns:xlink="http://www.w3.org/1999/xlink" xmlns:svgjs="http://svgjs.com/svgjs" width="1980" height="1080" preserveAspectRatio="none" viewBox="0 0 1980 1080"><g mask="url(&quot;#SvgjsMask1019&quot;)" fill="none"><path d="M976.12 918.82 a54.57 54.57 0 1 0 109.14 0 a54.57 54.57 0 1 0 -109.14 0z" fill="rgba(255, 183, 77, 1)"></path><path d="M1369.25 837 a104.66 104.66 0 1 0 209.32 0 a104.66 104.66 0 1 0 -209.32 0z" stroke="rgba(255, 183, 77, 1)"></path><path d="M983.22 78.47 a98.15 98.15 0 1 0 196.3 0 a98.15 98.15 0 1 0 -196.3 0z" stroke="rgba(52, 73, 94, 1)"></path><path d="M1403.68 702.68L1441.07 702.68L1441.07 796.8L1403.68 796.8z" stroke="rgba(52, 73, 94, 1)"></path><path d="M1552.13 202.3a94.97 94.97 0 1 0 129.16-139.27z" fill="rgba(255, 183, 77, 1)"></path><path d="M965.8 947.47L1027.49 947.47L1027.49 1009.16L965.8 1009.16z" stroke="rgba(255, 183, 77, 1)"></path><path d="M334.5 780.27L367.77 780.27L367.77 813.54L334.5 813.54z" stroke="rgba(52, 73, 94, 1)"></path><path d="M1248.21 389.81L1290.94 389.81L1290.94 432.54L1248.21 432.54z" fill="rgba(52, 73, 94, 1)"></path><path d="M1101.45 686.02 a27.88 27.88 0 1 0 55.76 0 a27.88 27.88 0 1 0 -55.76 0z" stroke="rgba(52, 73, 94, 1)"></path><path d="M814.86 740.19L922.3 740.19L922.3 847.63L814.86 847.63z" stroke="rgba(255, 183, 77, 1)"></path><path d="M831.57 89.08L899.96 89.08L899.96 157.47L831.57 157.47z" stroke="rgba(255, 183, 77, 1)"></path><path d="M1000.52 385.82L1102.54 385.82L1102.54 487.84L1000.52 487.84z" fill="rgba(255, 183, 77, 1)"></path><path d="M1814.39 93.77L1903.99 93.77L1903.99 183.37L1814.39 183.37z" stroke="rgba(52, 73, 94, 1)"></path><path d="M-25.74 852.7a65.15 65.15 0 1 0 124.26 39.19z" stroke="rgba(255, 183, 77, 1)"></path><path d="M1924.72 338.51L1981.59 338.51L1981.59 395.38L1924.72 395.38z" stroke="rgba(255, 183, 77, 1)"></path><path d="M421.19 1010.03 a8.62 8.62 0 1 0 17.24 0 a8.62 8.62 0 1 0 -17.24 0z" stroke="rgba(52, 73, 94, 1)"></path><path d="M333.25 983.89L365.53 983.89L365.53 1038.02L333.25 1038.02z" stroke="rgba(255, 183, 77, 1)"></path><path d="M1739.16 249.87a102.38 102.38 0 1 0-22.75 203.49z" stroke="rgba(255, 183, 77, 1)"></path><path d="M1928.74 11.48L2034.5 11.48L2034.5 117.24L1928.74 117.24z" fill="rgba(52, 73, 94, 1)"></path><path d="M153.15-66.19a107.09 107.09 0 1 0-167.22 133.83z" fill="rgba(52, 73, 94, 1)"></path><path d="M1346.97 904.95L1358.96 904.95L1358.96 916.94L1346.97 916.94z" fill="rgba(52, 73, 94, 1)"></path><path d="M47.77 95.07L85.84 95.07L85.84 133.14L47.77 133.14z" stroke="rgba(52, 73, 94, 1)"></path><path d="M882.17 1046.46a3.12 3.12 0 1 0-6.23-0.32z" stroke="rgba(52, 73, 94, 1)"></path></g><defs><mask id="SvgjsMask1019"><rect width="1980" height="1080" fill="#ffffff"></rect></mask></defs></svg>